<svg xmlns="http://www.w3.org/2000/svg" xmlns:xlink="http://www.w3.org/1999/xlink" width="2000" zoomAndPan="magnify" viewBox="0 0 1500 1499.999933" height="2000" preserveAspectRatio="xMidYMid meet" version="1.0"><defs><clipPath id="e3d00d76d5"><path d="M 147 159 L 1352 159 L 1352 1340 L 147 1340 Z M 147 159 " clip-rule="nonzero"/></clipPath></defs><rect x="-150" width="1800" fill="#ffffff" y="-149.999993" height="1799.99992" fill-opacity="1"/><rect x="-150" width="1800" fill="#ffffff" y="-149.999993" height="1799.99992" fill-opacity="1"/><g clip-path="url(#e3d00d76d5)"><path fill="#cf0101" d="M 1206.992188 530.175781 L 1202.242188 530.175781 C 1167.054688 446.488281 1113.558594 375.335938 1047.171875 321.285156 C 1056.929688 294.804688 1047.625 263.878906 1023.632812 248.339844 C 838.757812 128.589844 601.445312 128.535156 416.484375 248.339844 C 392.101562 264.140625 383 295.800781 393.554688 322.558594 C 323.316406 379.574219 267.097656 454.910156 232.671875 542.816406 C 182.285156 565.378906 147.046875 615.851562 147.046875 674.480469 L 147.046875 803.335938 C 147.046875 882.90625 211.855469 947.640625 291.523438 947.640625 L 328.488281 947.640625 C 337.082031 947.640625 344.164062 938.007812 341.679688 929.851562 C 334.96875 907.761719 335.589844 891.125 335.09375 884.21875 L 335.09375 622.632812 C 335.09375 531.832031 409.394531 458.296875 499.441406 458.296875 C 559.695312 458.296875 819.730469 458.296875 940.621094 458.296875 C 1013.605469 458.296875 1083.9375 507.550781 1101.433594 588.316406 C 1107.117188 615.132812 1104.777344 611.316406 1105.152344 884.21875 C 1105.152344 974.03125 1031.339844 1048.558594 940.621094 1048.558594 L 499.441406 1048.558594 C 460.753906 1048.558594 423.09375 1034.824219 393.417969 1009.878906 C 387.601562 1004.988281 378.894531 1005.726562 373.996094 1011.566406 C 369.09375 1017.394531 369.847656 1026.089844 375.683594 1030.992188 C 410.3125 1060.101562 454.273438 1076.132812 499.441406 1076.132812 C 528.265625 1076.132812 873.582031 1076.136719 998.894531 1076.140625 C 1080.46875 1076.140625 1153.585938 1023.800781 1180.277344 947.640625 L 1206.992188 947.640625 C 1208.589844 947.640625 1210.140625 947.453125 1211.722656 947.402344 C 1158.949219 1113.261719 1034.351562 1214.058594 846.355469 1244.070312 C 836.542969 1215.933594 810.03125 1195.5625 778.589844 1195.5625 L 695.511719 1195.5625 C 655.78125 1195.5625 623.453125 1227.886719 623.453125 1267.613281 C 623.453125 1307.339844 655.78125 1339.652344 695.511719 1339.652344 L 778.589844 1339.652344 C 816.996094 1339.652344 848.1875 1309.375 850.242188 1271.472656 C 1054.566406 1239.394531 1188.585938 1127.863281 1242.140625 943.121094 C 1304.644531 927.34375 1351.105469 870.746094 1351.105469 803.335938 L 1351.105469 674.480469 C 1351.105469 594.90625 1286.464844 530.175781 1206.992188 530.175781 Z M 1121.488281 557.75 L 1148.71875 557.75 C 1213.078125 557.75 1265.441406 610.113281 1265.441406 674.480469 L 1265.441406 803.335938 C 1265.441406 867.703125 1213.078125 920.066406 1148.71875 920.066406 L 1129.3125 920.066406 C 1135.5 887.085938 1131.660156 876.769531 1132.722656 622.632812 C 1132.722656 593.804688 1126.886719 575.390625 1121.488281 557.75 Z M 291.523438 920.066406 C 227.058594 920.066406 174.621094 867.703125 174.621094 803.335938 L 174.621094 674.480469 C 174.621094 625.761719 204.683594 583.972656 247.242188 566.503906 C 247.25 566.5 247.257812 566.5 247.265625 566.496094 C 277.46875 554.105469 299.605469 558.789062 318.8125 557.75 C 303.320312 609.855469 308.351562 582.453125 307.519531 884.21875 C 307.632812 886.914062 307.511719 898.289062 310.132812 914.75 C 310.421875 916.511719 310.558594 918.320312 310.894531 920.066406 Z M 331.359375 530.175781 C 296.140625 530.714844 287.917969 528.816406 266.976562 532.417969 C 299.757812 458.445312 348.945312 394.597656 409.296875 345.199219 C 429.359375 363.328125 457.203125 364.828125 478.507812 351.015625 C 625.414062 255.84375 814.671875 255.832031 961.609375 351.007812 C 983.425781 365.179688 1012.070312 363.09375 1031.855469 344.40625 C 1091.039062 393.128906 1139.332031 456.25 1172.332031 530.175781 L 1167.191406 530.175781 C 1133.40625 468.5 1069.679688 430.542969 998.894531 430.542969 C 947.746094 430.558594 1183.992188 430.476562 499.441406 430.722656 C 427.128906 430.722656 364.074219 470.953125 331.359375 530.175781 Z M 331.359375 530.175781 " fill-opacity="1" fill-rule="nonzero"/></g><path fill="#cf0101" d="M 924.949219 698.792969 L 924.949219 665.378906 C 924.949219 633.730469 899.207031 607.976562 867.558594 607.976562 C 835.910156 607.976562 810.148438 633.730469 810.148438 665.378906 L 810.148438 698.792969 C 810.148438 730.445312 835.910156 756.195312 867.558594 756.195312 C 899.207031 756.195312 924.949219 730.445312 924.949219 698.792969 Z M 924.949219 698.792969 " fill-opacity="1" fill-rule="nonzero"/><path fill="#cf0101" d="M 572.59375 607.976562 C 540.945312 607.976562 515.203125 633.730469 515.203125 665.378906 L 515.203125 698.792969 C 515.203125 730.445312 540.945312 756.195312 572.59375 756.195312 C 604.242188 756.195312 630.003906 730.445312 630.003906 698.792969 L 630.003906 665.378906 C 630.003906 633.730469 604.242188 607.976562 572.59375 607.976562 Z M 572.59375 607.976562 " fill-opacity="1" fill-rule="nonzero"/><path fill="#cf0101" d="M 541.574219 893.964844 C 541.574219 916.925781 560.261719 935.605469 583.222656 935.605469 L 856.933594 935.605469 C 879.890625 935.605469 898.578125 916.925781 898.578125 893.964844 C 898.578125 871.015625 879.890625 852.335938 856.933594 852.335938 L 583.222656 852.335938 C 560.261719 852.335938 541.574219 871.015625 541.574219 893.964844 Z M 541.574219 893.964844 " fill-opacity="1" fill-rule="nonzero"/><path fill="#cf0101" d="M 241.097656 670.339844 C 233.484375 670.339844 227.3125 676.515625 227.3125 684.128906 L 227.3125 793.679688 C 227.3125 801.289062 233.484375 807.464844 241.097656 807.464844 C 248.710938 807.464844 254.882812 801.289062 254.882812 793.679688 L 254.882812 684.128906 C 254.882812 676.515625 248.710938 670.339844 241.097656 670.339844 Z M 241.097656 670.339844 " fill-opacity="1" fill-rule="nonzero"/><path fill="#cf0101" d="M 1199.054688 807.464844 C 1206.667969 807.464844 1212.84375 801.289062 1212.84375 793.679688 L 1212.84375 684.128906 C 1212.84375 676.515625 1206.667969 670.339844 1199.054688 670.339844 C 1191.445312 670.339844 1185.269531 676.515625 1185.269531 684.128906 L 1185.269531 793.679688 C 1185.269531 801.289062 1191.445312 807.464844 1199.054688 807.464844 Z M 1199.054688 807.464844 " fill-opacity="1" fill-rule="nonzero"/></svg>